<svg id="圖層_1" data-name="圖層 1" xmlns="http://www.w3.org/2000/svg" viewBox="0 0 19 84"><defs><style>.cls-1{fill:none;stroke:#00a9e0;stroke-linecap:round;stroke-linejoin:bevel;stroke-width:2px;}</style></defs><title>img_quote_left</title><path class="cls-1" d="M17.32,2.19A10.07,10.07,0,0,0,6.89,3.41C3.27,6.34,2.18,11.5,2.74,16.12s2.49,8.94,3.94,13.36c1.57,4.79,2.59,6.76,3,11.78a9,9,0,0,1-.35,4.2c-.68,1.63-1.51,2.84-3.23,2.43s-2.78-2.74-1.69-4.13,2.51-1,3.61.4a6.5,6.5,0,0,1,.87,5.1C8.32,53,6.43,56.34,4.7,59.68A38.28,38.28,0,0,0,1.28,73.34c0,3.76,1.94,7.8,5.5,9,4.11,1.41,8.63-1.41,10.94-5.08"/></svg>